# xmcd CD database file
#
# Track frame offsets:
#	11801
#	29485
#	46016
#	58836
#	74801
#	92055
#	111893
#	129777
#	140202
#	150427
#	166713
#	176916
#	194565
#	208153
#	223128
#	243516
#
# Disc length: 3561 seconds
#
# Revision: 0
# Processed by: cddbd v1.5.2PL0 Copyright (c) Steve Scherf et al.
# Submitted via: CDex 1.70beta2
#
DISCID=010d4c10
DTITLE=Billy Bourbon - Trained Professionals
DYEAR=2008
DGENRE=Country
TTITLE0=Gas Money
TTITLE1=Tore Up From the Floor Up
TTITLE2=Cadillac Back
TTITLE3=Trained Professional
TTITLE4=Stone the Killer
TTITLE5=She Love Me
TTITLE6=Take the Day Off
TTITLE7=Wine of Her Lips
TTITLE8=Rain
TTITLE9=Know Each Other Better
TTITLE10=I'll Take Some
TTITLE11=Me and Sam
TTITLE12=Getting Old
TTITLE13=Millionaire
TTITLE14=Wouldn't Let Him Go
TTITLE15=Bonus Track
EXTD=YEAR: 2008
EXTT0=
EXTT1=
EXTT2=
EXTT3=
EXTT4=
EXTT5=
EXTT6=
EXTT7=
EXTT8=
EXTT9=
EXTT10=
EXTT11=
EXTT12=
EXTT13=
EXTT14=
EXTT15=
PLAYORDER=
